HIERARCHY
ROOT Hips
{
  OFFSET 0 0 0
  CHANNELS 6 Xposition Yposition Zposition Zrotation Yrotation Xrotation
  JOINT LeftThigh
  {
    OFFSET 8.409438 0 -5.917753
    CHANNELS 3 Zrotation Yrotation Xrotation
    JOINT LeftLeg
    {
      OFFSET 0 0 -42.358652
      CHANNELS 3 Zrotation Yrotation Xrotation
      JOINT LeftFoot
      {
        OFFSET 0 0 -39.357303
        CHANNELS 3 Zrotation Yrotation Xrotation
      }
    }
  }
  JOINT RightThigh
  {
    OFFSET -8.409438 0 -5.917753
    CHANNELS 3 Zrotation Yrotation Xrotation
    JOINT RightLeg
    {
      OFFSET 0 0 -42.358652
      CHANNELS 3 Zrotation Yrotation Xrotation
      JOINT RightFoot
      {
        OFFSET 0 0 -39.357303
        CHANNELS 3 Zrotation Yrotation Xrotation
      }
    }
  }
  JOINT SpineLow
  {
    OFFSET 0 0 4.719101
    CHANNELS 3 Zrotation Yrotation Xrotation
    JOINT SpineMid
    {
      OFFSET 0 0 12.899191
      CHANNELS 3 Zrotation Yrotation Xrotation
      JOINT Chest
      {
        OFFSET 0 0 12.899191
        CHANNELS 3 Zrotation Yrotation Xrotation
        JOINT LeftShoulder
        {
          OFFSET 7.550562 1.41573 9.438202
          CHANNELS 3 Zrotation Yrotation Xrotation
          JOINT LeftArm
          {
            OFFSET 9.155056 0 4.247191
            CHANNELS 3 Zrotation Yrotation Xrotation
            JOINT LeftForearm
            {
              OFFSET 0 0 25.771955
              CHANNELS 3 Zrotation Yrotation Xrotation
              JOINT LeftHand
              {
                OFFSET 0 0 25.197169
                CHANNELS 3 Zrotation Yrotation Xrotation
              }
            }
          }
        }
        JOINT RightShoulder
        {
          OFFSET -7.550562 1.41573 9.438202
          CHANNELS 3 Zrotation Yrotation Xrotation
          JOINT RightArm
          {
            OFFSET -9.155056 0 4.247191
            CHANNELS 3 Zrotation Yrotation Xrotation
            JOINT RightForearm
            {
              OFFSET 0 0 -25.771955
              CHANNELS 3 Zrotation Yrotation Xrotation
              JOINT RightHand
              {
                OFFSET 0 0 -25.197169
                CHANNELS 3 Zrotation Yrotation Xrotation
              }
            }
          }
        }
        JOINT Neck
        {
          OFFSET 0 0 15.101124
          CHANNELS 3 Zrotation Yrotation Xrotation
          JOINT Head
          {
            OFFSET 0 0 11.325843
            CHANNELS 3 Zrotation Yrotation Xrotation
            End Site
            {
              OFFSET 0 0 14.157303
            }
          }
        }
      }
    }
  }
}
MOTION
Frames: 6
Frame Time: 0.0
0.0  89.887642  0.0  3.067137  3.754963  -94.850026  6.782242  -11.291476  -1.345181  -14.072631  3.794204  17.631612  -2.85345  -1.796097  0.493687  -14.959316  12.31352  -7.694447  -4.658471  6.869906  16.069058  -1.915384  1.093017  -2.060962  0.237875  0.187473  0.045988  0.650576  0.51198  0.127548  0.650576  0.51198  0.127548  1.402783  17.263874  19.579714  128.501201  38.876221  -172.251505  -16.963197  -3.005994  37.742785  82.82333  -17.116044  13.951394  -10.35873  -8.563603  29.188764  81.249042  34.636078  28.908475  3.900465  16.3451  -28.849003  93.952081  14.163755  -24.326561  -9.602405  2.681055  5.138641  -7.223644  1.930784  3.89657  
0.0  89.887642  0.0  3.049324  4.1563  -94.969252  6.675326  -11.315281  -1.105892  -14.319515  3.69656  17.358042  -2.904423  -1.819256  0.515483  -15.048486  12.367632  -7.285151  -4.9212  6.930661  15.852127  -1.639693  1.050056  -2.124186  0.200967  0.178203  0.037409  0.549607  0.486785  0.103734  0.549607  0.486785  0.103734  1.378663  17.358379  19.820775  128.601305  38.74263  -172.139464  -17.194414  -3.185357  38.005472  82.604619  -17.18758  13.926996  -10.440679  -8.306214  29.475219  81.112939  34.724255  28.831763  4.222007  16.599841  -28.498477  93.869681  14.271802  -24.24286  -9.755553  2.711591  5.19451  -7.338981  1.951537  3.939659  
0.0  89.887642  0.0  3.004275  4.498057  -95.032869  6.655052  -11.407894  -0.935319  -14.917996  3.678498  16.876441  -2.765487  -1.721889  0.623319  -16.034421  12.26754  -7.372862  -5.139939  6.995155  15.671807  -0.5151  1.206513  -2.065479  0.193117  0.157498  0.031177  0.528075  0.430253  0.086478  0.528075  0.430253  0.086478  1.395942  17.4753  20.020567  128.567144  38.747781  -172.027171  -17.291788  -3.271987  38.323993  82.437797  -17.166511  13.876602  -10.739564  -8.008064  29.661635  81.203057  34.734476  28.922841  3.950442  16.626292  -28.252784  93.864289  14.382914  -24.02905  -10.016471  2.760434  5.158211  -7.53484  1.98659  3.914432  
0.0  89.887642  0.0  3.026168  5.051561  -95.012434  6.409357  -11.446012  -0.87481  -15.23716  3.738232  16.669199  -2.764023  -1.74581  0.657854  -16.120101  12.332311  -7.131985  -5.364863  7.001244  15.667662  -0.265562  1.227075  -2.160884  0.149668  0.163298  0.017592  0.409226  0.446249  0.049097  0.409226  0.446249  0.049097  1.374238  17.483839  20.09521  128.628962  38.744357  -171.90352  -17.345657  -3.330184  38.587139  82.370502  -17.139372  13.81024  -10.930451  -7.784616  29.873302  80.85703  34.884249  28.71822  3.869357  16.546781  -28.149796  93.757339  14.357584  -23.725705  -10.245463  2.741597  5.133142  -7.706307  1.97097  3.896414  
0.0  89.887642  0.0  3.00145  5.717271  -94.804562  5.966247  -11.511125  -1.149031  -15.648362  3.855076  16.450703  -2.636465  -1.63537  0.798553  -16.205038  12.320932  -7.115291  -6.959139  7.220691  15.413288  1.01731  1.40387  -2.009083  0.11337  0.144132  0.003742  0.309912  0.393951  0.010903  0.309912  0.393951  0.010903  1.331623  17.628285  20.023078  127.887637  38.832066  -171.886089  -17.646543  -3.657464  38.500683  82.248174  -17.055744  13.692009  -11.448245  -7.500794  29.722026  80.307094  35.024779  28.517775  4.094477  16.526883  -28.22881  93.701219  14.348785  -23.42513  -10.60131  2.760529  4.963375  -7.972491  1.985167  3.771078  
0.0  89.887642  0.0  3.069281  6.550587  -94.571376  5.373813  -11.491612  -1.524213  -15.793412  4.114658  16.554821  -2.649782  -1.662215  0.862594  -16.277948  12.424802  -7.225805  -7.081439  7.209084  15.804842  0.955952  1.431258  -2.060111  0.022504  0.160404  -0.023269  0.061358  0.43847  -0.063456  0.061358  0.43847  -0.063456  1.397451  17.68447  20.069162  127.618849  39.013311  -171.843341  -17.777622  -3.830509  38.537725  82.261814  -17.016  13.572337  -11.572659  -7.275669  29.734922  79.762824  35.123843  28.172037  4.260833  16.659639  -28.225851  93.720229  14.378342  -23.08617  -10.828467  2.708552  4.866859  -8.142022  1.946055  3.698867  
